<svg width="24px" height="24px" viewBox="0 0 24 25" fill="none" xmlns="http://www.w3.org/2000/svg">
    <path fill-rule="evenodd" clip-rule="evenodd"
          d="M12.0369 8.71262C12.4511 8.71262 12.7869 9.0484 12.7869 9.46262V16.611C12.7869 17.0253 12.4511 17.361 12.0369 17.361C11.6227 17.361 11.2869 17.0253 11.2869 16.611V9.46262C11.2869 9.0484 11.6227 8.71262 12.0369 8.71262Z"
          fill="#000000"/>
    <path fill-rule="evenodd" clip-rule="evenodd"
          d="M7.70886 13.0368C7.70886 12.6226 8.04465 12.2868 8.45886 12.2868H15.6147C16.0289 12.2868 16.3647 12.6226 16.3647 13.0368C16.3647 13.451 16.0289 13.7868 15.6147 13.7868H8.45886C8.04465 13.7868 7.70886 13.451 7.70886 13.0368Z"
          fill="#000000"/>
    <path fill-rule="evenodd" clip-rule="evenodd"
          d="M4.96051 5.96045C3.66147 7.25949 3.05005 9.42738 3.05005 13.0368C3.05005 16.6463 3.66147 18.8142 4.96051 20.1132C6.25956 21.4123 8.42744 22.0237 12.0369 22.0237C15.6463 22.0237 17.8142 21.4123 19.1133 20.1132C20.4123 18.8142 21.0237 16.6463 21.0237 13.0368C21.0237 9.42738 20.4123 7.25949 19.1133 5.96045C17.8142 4.6614 15.6463 4.04999 12.0369 4.04999C8.42744 4.04999 6.25956 4.6614 4.96051 5.96045ZM3.89985 4.89979C5.6437 3.15594 8.34424 2.54999 12.0369 2.54999C15.7295 2.54999 18.4301 3.15594 20.1739 4.89979C21.9178 6.64364 22.5237 9.34418 22.5237 13.0368C22.5237 16.7295 21.9178 19.43 20.1739 21.1739C18.4301 22.9177 15.7295 23.5237 12.0369 23.5237C8.34424 23.5237 5.6437 22.9177 3.89985 21.1739C2.156 19.43 1.55005 16.7295 1.55005 13.0368C1.55005 9.34418 2.156 6.64364 3.89985 4.89979Z"
          fill="#000000"/>
</svg>
